<svg xmlns="http://www.w3.org/2000/svg" xmlns:xlink="http://www.w3.org/1999/xlink" width="200" zoomAndPan="magnify" viewBox="0 0 150 37.5" height="50" preserveAspectRatio="xMidYMid meet" version="1.0"><defs><g/></defs><g fill="#c4f500" fill-opacity="1"><g transform="translate(16.368073, 27.194105)"><g><path d="M 8.90625 -16.296875 C 10.988281 -16.296875 12.613281 -15.789062 13.78125 -14.78125 C 14.957031 -13.769531 15.632812 -12.4375 15.8125 -10.78125 L 15.828125 -10.546875 L 12.640625 -10.546875 L 12.59375 -10.78125 C 12.175781 -12.863281 10.929688 -13.90625 8.859375 -13.90625 C 7.566406 -13.90625 6.523438 -13.382812 5.734375 -12.34375 C 4.953125 -11.300781 4.5625 -9.878906 4.5625 -8.078125 C 4.5625 -6.148438 4.953125 -4.664062 5.734375 -3.625 C 6.523438 -2.582031 7.550781 -2.0625 8.8125 -2.0625 C 9.832031 -2.0625 10.648438 -2.34375 11.265625 -2.90625 C 11.878906 -3.476562 12.296875 -4.273438 12.515625 -5.296875 L 12.5625 -5.53125 L 15.734375 -5.53125 L 15.71875 -5.296875 C 15.539062 -3.566406 14.828125 -2.195312 13.578125 -1.1875 C 12.328125 -0.175781 10.691406 0.328125 8.671875 0.328125 C 6.421875 0.328125 4.609375 -0.410156 3.234375 -1.890625 C 1.867188 -3.378906 1.1875 -5.378906 1.1875 -7.890625 C 1.1875 -10.453125 1.910156 -12.492188 3.359375 -14.015625 C 4.804688 -15.535156 6.65625 -16.296875 8.90625 -16.296875 Z M 8.90625 -16.296875 "/></g></g></g><g fill="#ffffff" fill-opacity="1"><g transform="translate(32.986339, 27.194105)"><g><path d="M 6.109375 -5.640625 L 0.734375 -5.640625 L 0.734375 -7.453125 L 6.109375 -7.453125 Z M 6.109375 -5.640625 "/></g></g></g><g fill="#fdfdfd" fill-opacity="1"><g transform="translate(39.844121, 27.194105)"><g><path d="M 5.25 -13.46875 L 5.25 -9.25 L 12.546875 -9.25 L 12.546875 -6.734375 L 5.25 -6.734375 L 5.25 0 L 2.0625 0 L 2.0625 -15.96875 L 13.359375 -15.96875 L 13.359375 -13.46875 Z M 5.25 -13.46875 "/></g></g></g><g fill="#fdfdfd" fill-opacity="1"><g transform="translate(53.566595, 27.194105)"><g><path d="M 1.78125 -16.40625 C 2.101562 -16.726562 2.523438 -16.890625 3.046875 -16.890625 C 3.578125 -16.890625 4.003906 -16.726562 4.328125 -16.40625 C 4.648438 -16.09375 4.8125 -15.691406 4.8125 -15.203125 C 4.8125 -14.691406 4.648438 -14.28125 4.328125 -13.96875 C 4.003906 -13.664062 3.578125 -13.515625 3.046875 -13.515625 C 2.523438 -13.515625 2.101562 -13.664062 1.78125 -13.96875 C 1.457031 -14.28125 1.296875 -14.691406 1.296875 -15.203125 C 1.296875 -15.691406 1.457031 -16.09375 1.78125 -16.40625 Z M 4.65625 0 L 1.453125 0 L 1.453125 -12.3125 L 4.65625 -12.3125 Z M 4.65625 0 "/></g></g></g><g fill="#fdfdfd" fill-opacity="1"><g transform="translate(59.722033, 27.194105)"><g><path d="M 12.9375 -9.1875 C 13 -8.632812 13.03125 -7.882812 13.03125 -6.9375 L 13.03125 0 L 9.828125 0 L 9.828125 -6.5 C 9.828125 -7.226562 9.8125 -7.800781 9.78125 -8.21875 C 9.675781 -9.664062 8.890625 -10.390625 7.421875 -10.390625 C 6.585938 -10.390625 5.914062 -10 5.40625 -9.21875 C 4.90625 -8.4375 4.65625 -7.238281 4.65625 -5.625 L 4.65625 0 L 1.453125 0 L 1.453125 -12.3125 L 4.65625 -12.3125 L 4.65625 -10.328125 L 5.59375 -11.78125 C 6.394531 -12.351562 7.382812 -12.640625 8.5625 -12.640625 C 9.851562 -12.640625 10.875 -12.335938 11.625 -11.734375 C 12.375 -11.128906 12.8125 -10.28125 12.9375 -9.1875 Z M 12.9375 -9.1875 "/></g></g></g><g fill="#fdfdfd" fill-opacity="1"><g transform="translate(74.092439, 27.194105)"><g><path d="M 8.609375 0 L 8.375 -1.8125 L 7.78125 -0.484375 C 6.976562 0.0546875 5.957031 0.328125 4.71875 0.328125 C 3.59375 0.328125 2.648438 0.0078125 1.890625 -0.625 C 1.140625 -1.257812 0.765625 -2.140625 0.765625 -3.265625 C 0.765625 -4.617188 1.335938 -5.660156 2.484375 -6.390625 C 3.640625 -7.128906 5.328125 -7.5 7.546875 -7.5 L 8.328125 -7.5 L 8.328125 -7.75 C 8.328125 -8.25 8.3125 -8.632812 8.28125 -8.90625 C 8.175781 -9.894531 7.546875 -10.390625 6.390625 -10.390625 C 5.109375 -10.390625 4.421875 -9.695312 4.328125 -8.3125 L 1.21875 -8.28125 C 1.269531 -9.644531 1.785156 -10.710938 2.765625 -11.484375 C 3.742188 -12.253906 4.988281 -12.640625 6.5 -12.640625 C 9.570312 -12.640625 11.21875 -11.425781 11.4375 -9 C 11.476562 -8.414062 11.5 -7.785156 11.5 -7.109375 L 11.5 -3.125 C 11.5 -2.1875 11.578125 -1.144531 11.734375 0 Z M 5.953125 -1.921875 C 6.628906 -1.921875 7.191406 -2.148438 7.640625 -2.609375 C 8.097656 -3.078125 8.328125 -3.71875 8.328125 -4.53125 L 8.328125 -5.53125 C 5.492188 -5.726562 4.078125 -5.054688 4.078125 -3.515625 C 4.078125 -2.453125 4.703125 -1.921875 5.953125 -1.921875 Z M 5.953125 -1.921875 "/></g></g></g><g fill="#fdfdfd" fill-opacity="1"><g transform="translate(87.097549, 27.194105)"><g><path d="M 12.9375 -9.1875 C 13 -8.632812 13.03125 -7.882812 13.03125 -6.9375 L 13.03125 0 L 9.828125 0 L 9.828125 -6.5 C 9.828125 -7.226562 9.8125 -7.800781 9.78125 -8.21875 C 9.675781 -9.664062 8.890625 -10.390625 7.421875 -10.390625 C 6.585938 -10.390625 5.914062 -10 5.40625 -9.21875 C 4.90625 -8.4375 4.65625 -7.238281 4.65625 -5.625 L 4.65625 0 L 1.453125 0 L 1.453125 -12.3125 L 4.65625 -12.3125 L 4.65625 -10.328125 L 5.59375 -11.78125 C 6.394531 -12.351562 7.382812 -12.640625 8.5625 -12.640625 C 9.851562 -12.640625 10.875 -12.335938 11.625 -11.734375 C 12.375 -11.128906 12.8125 -10.28125 12.9375 -9.1875 Z M 12.9375 -9.1875 "/></g></g></g><g fill="#fdfdfd" fill-opacity="1"><g transform="translate(101.467955, 27.194105)"><g><path d="M 6.78125 -12.640625 C 8.394531 -12.640625 9.703125 -12.191406 10.703125 -11.296875 C 11.710938 -10.410156 12.28125 -9.269531 12.40625 -7.875 L 9.25 -7.875 C 8.976562 -9.550781 8.128906 -10.390625 6.703125 -10.390625 C 5.859375 -10.390625 5.1875 -10.039062 4.6875 -9.34375 C 4.1875 -8.65625 3.9375 -7.628906 3.9375 -6.265625 C 3.9375 -4.804688 4.179688 -3.71875 4.671875 -3 C 5.171875 -2.28125 5.84375 -1.921875 6.6875 -1.921875 C 7.320312 -1.921875 7.859375 -2.117188 8.296875 -2.515625 C 8.734375 -2.921875 9.03125 -3.503906 9.1875 -4.265625 L 12.375 -4.265625 C 12.113281 -2.773438 11.460938 -1.632812 10.421875 -0.84375 C 9.378906 -0.0625 8.070312 0.328125 6.5 0.328125 C 4.757812 0.328125 3.34375 -0.222656 2.25 -1.328125 C 1.164062 -2.429688 0.625 -4.007812 0.625 -6.0625 C 0.625 -8.101562 1.207031 -9.707031 2.375 -10.875 C 3.550781 -12.050781 5.019531 -12.640625 6.78125 -12.640625 Z M 6.78125 -12.640625 "/></g></g></g><g fill="#fdfdfd" fill-opacity="1"><g transform="translate(114.449925, 27.194105)"><g><path d="M 1.78125 -16.40625 C 2.101562 -16.726562 2.523438 -16.890625 3.046875 -16.890625 C 3.578125 -16.890625 4.003906 -16.726562 4.328125 -16.40625 C 4.648438 -16.09375 4.8125 -15.691406 4.8125 -15.203125 C 4.8125 -14.691406 4.648438 -14.28125 4.328125 -13.96875 C 4.003906 -13.664062 3.578125 -13.515625 3.046875 -13.515625 C 2.523438 -13.515625 2.101562 -13.664062 1.78125 -13.96875 C 1.457031 -14.28125 1.296875 -14.691406 1.296875 -15.203125 C 1.296875 -15.691406 1.457031 -16.09375 1.78125 -16.40625 Z M 4.65625 0 L 1.453125 0 L 1.453125 -12.3125 L 4.65625 -12.3125 Z M 4.65625 0 "/></g></g></g><g fill="#fdfdfd" fill-opacity="1"><g transform="translate(120.605363, 27.194105)"><g><path d="M 8.609375 0 L 8.375 -1.8125 L 7.78125 -0.484375 C 6.976562 0.0546875 5.957031 0.328125 4.71875 0.328125 C 3.59375 0.328125 2.648438 0.0078125 1.890625 -0.625 C 1.140625 -1.257812 0.765625 -2.140625 0.765625 -3.265625 C 0.765625 -4.617188 1.335938 -5.660156 2.484375 -6.390625 C 3.640625 -7.128906 5.328125 -7.5 7.546875 -7.5 L 8.328125 -7.5 L 8.328125 -7.75 C 8.328125 -8.25 8.3125 -8.632812 8.28125 -8.90625 C 8.175781 -9.894531 7.546875 -10.390625 6.390625 -10.390625 C 5.109375 -10.390625 4.421875 -9.695312 4.328125 -8.3125 L 1.21875 -8.28125 C 1.269531 -9.644531 1.785156 -10.710938 2.765625 -11.484375 C 3.742188 -12.253906 4.988281 -12.640625 6.5 -12.640625 C 9.570312 -12.640625 11.21875 -11.425781 11.4375 -9 C 11.476562 -8.414062 11.5 -7.785156 11.5 -7.109375 L 11.5 -3.125 C 11.5 -2.1875 11.578125 -1.144531 11.734375 0 Z M 5.953125 -1.921875 C 6.628906 -1.921875 7.191406 -2.148438 7.640625 -2.609375 C 8.097656 -3.078125 8.328125 -3.71875 8.328125 -4.53125 L 8.328125 -5.53125 C 5.492188 -5.726562 4.078125 -5.054688 4.078125 -3.515625 C 4.078125 -2.453125 4.703125 -1.921875 5.953125 -1.921875 Z M 5.953125 -1.921875 "/></g></g></g></svg>